<?xml version="1.0" standalone="no"?>
<!DOCTYPE svg PUBLIC "-//W3C//DTD SVG 1.1//EN"
   "http://www.w3.org/Graphics/SVG/1.1/DTD/svg11.dtd">
<svg
   xmlns="http://www.w3.org/2000/svg"
   version="1.1"
   style="color:#000000;stroke:#7f7f7f;fill:none;stroke-width:.25;font-size:8"
   id="intuos-pro-m"
   width="355"
   height="250">
  <title
     id="title">Huion HS611</title>
  <g>
   	<rect
   	   id="ButtonA"
       class="A ModeSwitch Button"
       width="22"
       height="12"
       x="18"
       y="19"
       ry="5" />
    <path
       id="LeaderA"
       class="A ModeSwitch Leader"
       d="m 51,25 4,0" />
    <text
       id="LabelA"
       class="A ModeSwitch Label"
       x="57"
       y="26"
       style="text-anchor:start">A</text>
  </g>
  <g>
    <rect
   	   id="ButtonB"
       class="B ModeSwitch Button"
       width="22"
       height="12"
       x="18"
       y="38"
       ry="5" />
    <path
       d="m 51,44 4,0"
       class="B ModeSwitch Leader"
       id="LeaderB" />
    <text
       style="text-anchor:start"
       y="45"
       x="57"
       class="B ModeSwitch Label"
       id="LabelB">B</text>
  </g>
  <g>
    <rect
   	   id="ButtonC"
       class="C ModeSwitch Button"
       width="22"
       height="12"
       x="18"
       y="57"
       ry="5" />
    <path
       id="LeaderC"
       class="C ModeSwitch Leader"
       d="m 51,63 4,0" />
    <text
       id="LabelC"
       class="C ModeSwitch Label"
       x="57"
       y="64"
       style="text-anchor:start">C</text>
  </g>
  <g>
    <rect
   	   id="ButtonD"
       class="D ModeSwitch Button"
       width="22"
       height="12"
       x="18"
       y="76"
       ry="5" />
    <path
       id="LeaderD"
       class="D ModeSwitch Leader"
       d="m 51,82 4,0" />
    <text
       id="LabelD"
       class="D ModeSwitch Label"
       x="57"
       y="83"
       style="text-anchor:start">D</text>
  </g>
  <g>
    <rect
   	   id="ButtonE"
       class="E ModeSwitch Button"
       width="22"
       height="12"
       x="18"
       y="95"
       ry="5" />
    <path
       id="LeaderE"
       class="E ModeSwitch Leader"
       d="m 51,101 4,0" />
    <text
       id="LabelE"
       class="E ModeSwitch Label"
       x="57"
       y="102"
       style="text-anchor:start">E</text>
  </g>






  <g>
    <rect
   	   id="ButtonF"
       class="F ModeSwitch Button"
       width="22"
       height="12"
       x="18"
       y="119"
       ry="5" />
    <path
       id="LeaderF"
       class="F ModeSwitch Leader"
       d="m 51,125 4,0" />
    <text
       id="LabelF"
       class="F ModeSwitch Label"
       x="57"
       y="126"
       style="text-anchor:start">F</text>
  </g>
  <g>
    <rect
   	   id="ButtonG"
       class="G ModeSwitch Button"
       width="22"
       height="12"
       x="18"
       y="138"
       ry="5" />
    <path
       id="LeaderG"
       class="G ModeSwitch Leader"
       d="m 51,144 4,0" />
    <text
       id="LabelG"
       class="G ModeSwitch Label"
       x="57"
       y="145"
       style="text-anchor:start">G</text>
  </g>
  <g>
    <rect
   	   id="ButtonH"
       class="H ModeSwitch Button"
       width="22"
       height="12"
       x="18"
       y="157"
       ry="5" />
    <path
       id="LeaderH"
       class="H ModeSwitch Leader"
       d="m 51,163 4,0" />
    <text
       id="LabelH"
       class="H ModeSwitch Label"
       x="57"
       y="164"
       style="text-anchor:start">H</text>
  </g>
  <g>
    <rect
   	   id="ButtonI"
       class="I ModeSwitch Button"
       width="22"
       height="12"
       x="18"
       y="176"
       ry="5" />
    <path
       id="LeaderI"
       class="I ModeSwitch Leader"
       d="m 51,182 4,0" />
    <text
       id="LabelI"
       class="I ModeSwitch Label"
       x="57"
       y="183"
       style="text-anchor:start">I</text>
  </g>
  <g>
    <rect
   	   id="ButtonJ"
       class="J ModeSwitch Button"
       width="22"
       height="12"
       x="18"
       y="195"
       ry="5" />
    <path
       id="LeaderJ"
       class="J ModeSwitch Leader"
       d="m 51,201 4,0" />
    <text
       id="LabelJ"
       class="J ModeSwitch Label"
       x="57"
       y="202"
       style="text-anchor:start">J</text>
  </g>
</svg>
