<?xml version="1.0" encoding="UTF-8" standalone="no"?>
<svg
   id="huion-kamvas-pro-20"
   width="355"
   height="250"
   style="color:#000000;stroke:#7f7f7f;fill:none;stroke-width:.25;font-size:8"
   version="1.1"
   xmlns="http://www.w3.org/2000/svg">
  <title
     id="title">Huion Kamvas Pro 20</title>
  <rect
     id="ButtonA"
     class="A Button"
     x="13"
     y="44"
     width="24"
     height="12"
     ry="0.0" />
  <path
     id="LeaderA"
     class="A Leader"
     d="m 39.5,52.5 h 4" />
  <text
     id="LabelA"
     class="A Label"
     x="45.5"
     y="52.5"
     style="text-anchor:start">A</text>
  <rect
     id="ButtonB"
     class="B Button"
     x="13"
     y="56"
     width="24"
     height="12" />
  <path
     id="LeaderB"
     class="B Leader"
     d="m 39.5,65 h 4" />
  <text
     id="LabelB"
     class="B Label"
     x="45.5"
     y="65"
     style="text-anchor:start">B</text>
  <rect
     id="ButtonC"
     class="C Button"
     x="13"
     y="68"
     width="24"
     height="12" />
  <path
     id="LeaderC"
     class="C Leader"
     d="m 39.5,78 h 4" />
  <text
     id="LabelC"
     class="C Label"
     x="45.5"
     y="78"
     style="text-anchor:start">C</text>
  <rect
     id="ButtonD"
     class="D Button"
     x="13"
     y="80"
     width="24"
     height="12" />
  <path
     id="LeaderD"
     class="D Leader"
     d="m 39.5,89 h 4" />
  <text
     id="LabelD"
     class="D Label"
     x="45.5"
     y="89"
     style="text-anchor:start">D</text>
  <rect
     id="ButtonE"
     class="E Button"
     x="12"
     y="156.5"
     width="24"
     height="12" />
  <path
     id="LeaderE"
     class="E Leader"
     d="m 39.5,164.5 h 4" />
  <text
     id="LabelE"
     class="E Label"
     x="45.5"
     y="164.5"
     style="text-anchor:start">E</text>
  <rect
     id="ButtonF"
     class="F Button"
     x="12"
     y="168.5"
     width="24"
     height="12" />
  <path
     id="LeaderF"
     class="F Leader"
     d="m 39.5,178 h 4" />
  <text
     id="LabelF"
     class="F Label"
     x="45.5"
     y="178"
     style="text-anchor:start">F</text>
  <rect
     id="ButtonG"
     class="G Button"
     x="12"
     y="180.5"
     width="24"
     height="12" />
  <path
     id="LeaderG"
     class="G Leader"
     d="m 39.5,189.5 h 4" />
  <text
     id="LabelG"
     class="G Label"
     x="45.5"
     y="189.5"
     style="text-anchor:start">G</text>
  <rect
     id="ButtonH"
     class="H Button"
     x="12"
     y="192.5"
     width="24"
     height="12" />
  <path
     id="LeaderH"
     class="H Leader"
     d="m 39.5,202 h 4" />
  <text
     id="LabelH"
     class="H Label"
     x="45.5"
     y="202"
     style="text-anchor:start">H</text>
</svg>
